<svg xmlns="http://www.w3.org/2000/svg" width="239.57" height="119" viewBox="0 0 239.57 119">
  <g id="Group_8" data-name="Group 8" transform="translate(-139.291 -164.722)" style="mix-blend-mode: multiply;isolation: isolate">
    <g id="Group_1" data-name="Group 1" transform="translate(169.451 164.722)">
      <path id="Path_1" data-name="Path 1" d="M300.449,263.909v-6.377H214.015V177.476h80.056v86.433h6.377v0h6.377V164.722H201.262V270.286H306.825v-6.377Z" transform="translate(-201.262 -164.722)" fill="#fac414"/>
    </g>
    <g id="Group_2" data-name="Group 2" transform="translate(139.291 209.706)">
      <path id="Path_2" data-name="Path 2" d="M139.291,292.875V257.152h13.265c6.349,0,10.613,2.464,10.613,9.286,0,3.221-1.042,5.827-3.932,7.3v.095c5.117.663,7.3,4.122,7.3,9.1,0,7.486-6.4,9.95-12.934,9.95Zm9.286-21.7h1.042c2.464,0,5.022-.427,5.022-3.459,0-3.269-2.89-3.458-5.4-3.458h-.663Zm0,14.593h1.185c2.748,0,7.391.142,7.391-3.79,0-4.312-4.6-3.885-7.628-3.885h-.948Z" transform="translate(-139.291 -257.152)" fill="#233267"/>
      <path id="Path_3" data-name="Path 3" d="M227.877,293.361H209.732c0,3.506,1.847,5.4,5.4,5.4a4.311,4.311,0,0,0,4.122-2.227h8.291c-1.374,5.733-6.822,8.339-12.366,8.339-8.054,0-14.071-4.548-14.071-12.935,0-8.1,5.543-12.982,13.456-12.982,8.433,0,13.313,5.211,13.313,13.5Zm-8.006-4.974a5.174,5.174,0,0,0-10,0Z" transform="translate(-171.023 -268.345)" fill="#233267"/>
      <path id="Path_4" data-name="Path 4" d="M256.892,280.613h9.949l6.491,12.461,6.349-12.461h9.807l-19.473,36.434h-9.664l8.291-15.445Z" transform="translate(-199.658 -269.195)" fill="#233267"/>
    </g>
    <g id="Group_3" data-name="Group 3" transform="translate(289.108 206.859)">
      <path id="Path_5" data-name="Path 5" d="M455.749,284.438h.095c1.989-2.937,4.406-3.932,7.769-3.932,6.539,0,9.144,4.122,9.144,10.092v15.018h-8.623V293.771c0-2.321.379-6.4-3.885-6.4-3.506,0-4.5,2.606-4.5,5.638v12.6h-8.623v-24.3h8.623Z" transform="translate(-447.125 -266.293)" fill="#233267"/>
      <path id="Path_6" data-name="Path 6" d="M528.265,287.925h-.094c-1.516,2.416-4.5,3.506-7.344,3.506-7.2,0-12.271-6.017-12.271-12.982s4.975-12.934,12.176-12.934a9.914,9.914,0,0,1,7.533,3.175V251.3h8.622v39.323h-8.622Zm-10.8-9.428a5.544,5.544,0,0,0,11.086,0,5.543,5.543,0,0,0-11.086,0Z" transform="translate(-478.659 -251.302)" fill="#233267"/>
    </g>
    <g id="Group_4" data-name="Group 4" transform="translate(216.247 178.602)">
      <path id="Path_7" data-name="Path 7" d="M341.927,213.95c0,13.023-9.34,22.2-22.255,22.2s-22.256-9.18-22.256-22.2c0-12.169,10.674-20.708,22.256-20.708S341.927,201.781,341.927,213.95ZM308.3,214c0,6.939,5.124,12.009,11.368,12.009s11.368-5.07,11.368-12.009c0-5.551-5.124-10.621-11.368-10.621S308.3,208.453,308.3,214Z" transform="translate(-297.415 -193.242)" fill="#00529a"/>
    </g>
    <g id="Group_5" data-name="Group 5" transform="translate(223.351 220.867)">
      <path id="Path_8" data-name="Path 8" d="M376.572,310.12c0,18.888-13.547,32.2-32.28,32.2s-32.28-13.315-32.28-32.2c0-17.65,15.482-30.035,32.28-30.035S376.572,292.471,376.572,310.12ZM327.8,310.2c0,10.063,7.432,17.417,16.489,17.417s16.488-7.354,16.488-17.417c0-8.051-7.431-15.4-16.488-15.4S327.8,302.147,327.8,310.2Z" transform="translate(-312.012 -280.085)" fill="#1d4482"/>
    </g>
    <g id="Group_6" data-name="Group 6" transform="translate(288.119 247.174)">
      <path id="Path_9" data-name="Path 9" d="M454.189,355.934l-1.819,4.583h-7.276l10.145-26.378h7.487l9.936,26.378h-7.312l-1.714-4.583Zm4.793-13.644h-.07l-2.833,8.4h5.7Z" transform="translate(-445.093 -334.139)" fill="#f58b24"/>
      <path id="Path_10" data-name="Path 10" d="M512.2,354.143h.071a6.235,6.235,0,0,1,5.807-3.184H519.3v6.122a5.156,5.156,0,0,0-2.694-.6c-3.533,0-4.408,2.344-4.408,5.423v7.242H505.83V351.2H512.2Z" transform="translate(-476.27 -342.773)" fill="#f58b24"/>
      <path id="Path_11" data-name="Path 11" d="M545.1,363.727h-6.367v-12.7h-2.064V345.78h2.064v-5.387H545.1v5.387h3.6v5.248h-3.6Z" transform="translate(-492.098 -337.349)" fill="#f58b24"/>
      <path id="Path_12" data-name="Path 12" d="M580.012,364.126v5.283H561.82l8.432-12.665h-7.312v-5.283h17.912l-8.4,12.664Z" transform="translate(-505.011 -343.031)" fill="#f58b24"/>
      <path id="Path_13" data-name="Path 13" d="M619.026,371.97a5.934,5.934,0,1,1-5.934-5.934A5.942,5.942,0,0,1,619.026,371.97Z" transform="translate(-528.284 -350.512)" fill="#233267"/>
    </g>
    <g id="Group_7" data-name="Group 7" transform="translate(288.027 277.895)">
      <path id="Path_14" data-name="Path 14" d="M448.777,403.1h-3.872v-5.6h.893v4.862h2.979Z" transform="translate(-444.905 -397.382)" fill="#221f1f"/>
      <path id="Path_15" data-name="Path 15" d="M467.037,400.176a2.707,2.707,0,1,1-2.695-2.914A2.615,2.615,0,0,1,467.037,400.176Zm-.957,0c0-1.4-.65-2.232-1.737-2.232s-1.745.836-1.745,2.232.649,2.232,1.745,2.232S466.08,401.564,466.08,400.176Z" transform="translate(-453.495 -397.262)" fill="#221f1f"/>
      <path id="Path_16" data-name="Path 16" d="M483.9,403.1l-1.956-5.6h.966l1.583,4.919,1.623-4.919h.949l-2.013,5.6Z" transform="translate(-463.917 -397.382)" fill="#221f1f"/>
      <path id="Path_17" data-name="Path 17" d="M506.084,403.1h-3.872v-5.6H506v.706h-2.9v1.737h2.67v.706h-2.67v1.737h2.979Z" transform="translate(-474.322 -397.382)" fill="#221f1f"/>
      <path id="Path_18" data-name="Path 18" d="M536.972,400.176a2.707,2.707,0,1,1-2.695-2.914A2.615,2.615,0,0,1,536.972,400.176Zm-.958,0c0-1.4-.65-2.232-1.737-2.232s-1.745.836-1.745,2.232.649,2.232,1.745,2.232S536.014,401.564,536.014,400.176Z" transform="translate(-489.394 -397.262)" fill="#221f1f"/>
      <path id="Path_19" data-name="Path 19" d="M554.087,399.939h2.59v.706h-2.59V403.1h-.893v-5.6h3.791v.706h-2.9Z" transform="translate(-500.492 -397.382)" fill="#221f1f"/>
      <path id="Path_20" data-name="Path 20" d="M583.332,401.245l-.609,1.851h-.95l2.013-5.6h1.153l1.957,5.6h-.966l-.608-1.851Zm1.753-.706-.738-2.3-.78,2.3Z" transform="translate(-515.162 -397.382)" fill="#221f1f"/>
      <path id="Path_21" data-name="Path 21" d="M606.5,403.1h-.982a4.63,4.63,0,0,1-.284-1.331c-.073-.593-.292-.966-.8-1-.138-.008-.276-.008-.414-.008h-.868V403.1h-.893v-5.6h1.932a5.827,5.827,0,0,1,.77.033,1.425,1.425,0,0,1,1.421,1.494,1.338,1.338,0,0,1-1.039,1.339,1.426,1.426,0,0,1,.771,1.29A2.834,2.834,0,0,0,606.5,403.1Zm-2.418-3.028a4.405,4.405,0,0,0,.5-.016.854.854,0,0,0,.852-.917.8.8,0,0,0-.779-.9,3.038,3.038,0,0,0-.519-.033h-.99v1.867Z" transform="translate(-525.678 -397.382)" fill="#221f1f"/>
      <path id="Path_22" data-name="Path 22" d="M622.934,398.2V403.1h-.885V398.2h-1.956v-.706h4.8v.706Z" transform="translate(-534.833 -397.382)" fill="#221f1f"/>
    </g>
  </g>
</svg>
